<svg xmlns="http://www.w3.org/2000/svg" width="14" height="14" viewBox="0 0 14 14">
  <metadata><?xpacket begin="﻿" id="W5M0MpCehiHzreSzNTczkc9d"?>
<x:xmpmeta xmlns:x="adobe:ns:meta/" x:xmptk="Adobe XMP Core 5.6-c140 79.160451, 2017/05/06-01:08:21        ">
   <rdf:RDF xmlns:rdf="http://www.w3.org/1999/02/22-rdf-syntax-ns#">
      <rdf:Description rdf:about=""/>
   </rdf:RDF>
</x:xmpmeta>
                                                                                                    
                                                                                                    
                                                                                                    
                                                                                                    
                                                                                                    
                                                                                                    
                                                                                                    
                                                                                                    
                                                                                                    
                                                                                                    
                                                                                                    
                                                                                                    
                                                                                                    
                                                                                                    
                                                                                                    
                                                                                                    
                                                                                                    
                                                                                                    
                                                                                                    
                                                                                                    
                           
<?xpacket end="w"?></metadata>
<defs>
    <style>
      .cls-1 {
        fill: #888;
        fill-rule: evenodd;
      }
    </style>
  </defs>
  <path id="_" data-name="" class="cls-1" d="M1243.64,215.982a1.267,1.267,0,0,1,0,1.769l-0.88.885a1.217,1.217,0,0,1-.89.359,1.2,1.2,0,0,1-.88-0.359l-3.99-3.981-3.99,3.981a1.2,1.2,0,0,1-.88.359,1.217,1.217,0,0,1-.89-0.359l-0.89-.885a1.267,1.267,0,0,1,0-1.769l3.99-3.98-3.99-3.98a1.268,1.268,0,0,1,0-1.77l0.89-.884a1.217,1.217,0,0,1,.89-0.359,1.2,1.2,0,0,1,.88.359l3.99,3.98,3.99-3.98a1.2,1.2,0,0,1,.88-0.359,1.217,1.217,0,0,1,.89.359l0.88,0.884a1.268,1.268,0,0,1,0,1.77l-3.98,3.98Z" transform="translate(-1230 -205)"/>
</svg>
